<svg xmlns="http://www.w3.org/2000/svg" fill="none" viewBox="0 0 128 128">
    <path d="M24.427 83.738c-1.16-2.959-2.328-5.912-3.489-8.87-.607-1.55-.565-2.464.726-3.565 1.343-1.15 2.687-2.293 4.03-3.436 2.281-1.898 4.562-3.796 6.837-5.7-.141.118-.247.472-.336.643-.13.235-.253.477-.383.712l-.76 1.38-.371.672c-.118.206-.183.448-.33.63-.147.183-.454.33-.666.484a98.095 98.095 0 0 0-4.75 3.707c-.26.212-.52.436-.714.707-.2.277-.188.466.177.324.224-.088.419-.242.643-.336l1.084-.478c.371-.165.742-.336 1.114-.513.183-.088.371-.17.554-.26.183-.088.554-.224.554-.264.083 1.61.89 3.123 1.473 4.614a51.062 51.062 0 0 1-4.626 1.532c.448 1.16.902 2.322 1.35 3.483a40.77 40.77 0 0 0 5.887-1.532c.684 1.727 1.361 3.454 2.045 5.18a31.213 31.213 0 0 1-10.025.885h-.024Z"/><path fill="#fff" d="M47.465 76.312A72.298 72.298 0 0 1 43.6 78.84c-2.033-2.34-4.06-4.685-6.077-7.031-.395.23-.594.336-.996.56l3.43 8.433a39.756 39.756 0 0 1-3.6 1.468l-4.58-11.492c-.7-1.757-.943-3.065-.117-4.822.795-1.69 1.65-3.36 2.398-5.074 1.532-1.29 3.065-2.576 4.597-3.872.595-.513 1.62-1.392 2.316-.625.82.902.083 3.259-.047 4.22-.378 2.74 1.055 5.605-.225 8.351 2.246 2.458 4.503 4.915 6.772 7.355h-.006l.001.001ZM35.23 62.78c-.642 1.733-1.108 3.017-.618 4.868.695-.413 1.384-.837 2.074-1.261 1.19-.79.908-2.482 1.143-3.684.118-.607.437-2.234-.69-1.26-.63.453-1.267.901-1.903 1.343l-.006-.006ZM48.82 75.34l-3.518-8.322c-.902-2.127-1.957-4.243-2.27-6.553-.165-1.238.077-2.565.23-3.796.094-.76.206-1.526.341-2.28.112-.637.136-1.415.514-1.957.235-.33.594-.56.907-.808 1.892-1.603 3.783-3.206 5.681-4.803.383 1.432.018 3.324-.029 4.803a214.383 214.383 0 0 0-4.603 3.4c-.147 1.209-.277 2.293-.111 3.507 1.35-.966 2.71-1.915 4.09-2.835.453 1.727 1.284 3.354 1.992 4.992a93.738 93.738 0 0 0-4.144 2.835c1.35 3.165 2.694 6.33 4.043 9.495-1.043.771-2.08 1.555-3.123 2.328v-.006ZM58.386 68.957c-1.75-4.014-3.495-8.028-5.245-12.041-.731-1.68-1.208-3.23-1.214-5.074 0-.902 0-1.804.006-2.705 0-1.003.212-2.299-.118-3.26 2.27-1.91 4.544-3.813 6.83-5.705.814 1.745.861 4.126 1.18 6.03-1.645.79-3.253 1.62-4.821 2.551.088 1.22.165 2.393.43 3.59a35.886 35.886 0 0 1 4.397-1.704c.618 1.998 1.532 3.895 2.351 5.81-1.59.225-3.106.573-4.614 1.115.642 1.455 1.278 2.905 1.921 4.36 1.945-.536 3.86-.665 5.87-.583l2.8 6.62c-3.495-.779-6.506-.496-9.771.995h-.002Z"/><path fill="#fff" d="M63.125 53.445c-1.527-3.714-1.792-7.462-1.315-11.44.26-2.152.66-5.499 2.44-6.996 4.915-4.143 8.493 8.417 9.424 11.057a37.98 37.98 0 0 1-2.835 2.858c-.395-1.02-2.204-7.727-4.461-6.519-1.132.608-1.25 2.316-1.279 3.43-.076 2.482.654 4.815 1.544 7.09.931 2.388 1.969 4.816 3.389 6.979.69 1.054 1.774 2.704 3.194 2.763 2.818.118.035-7.13-.26-8.032 1.31.094 2.6.094 3.908.011.725 2.004 5.888 17.138-.513 15.984-2.905-.525-5.275-3.654-6.925-5.864-2.587-3.465-4.668-7.338-6.306-11.322h-.006ZM86.316 67.572c-3.802-9.907-7.786-19.755-11.15-29.822.135.413-2.223 1.662-2.6 1.827-.784-1.002-.79-2.464-1.126-3.642a40.24 40.24 0 0 0-1.048-3.194c-.23-.607-.902-1.633-.26-2.198.419-.366.89-.666 1.315-1.025.624-.531 1.25-1.056 1.874-1.586 1.26-1.066 2.228-2.27 4.008-1.844.36.088.672.954.79 1.238.288.718.577 1.432.867 2.15.589 1.456 1.178 2.918 1.762 4.374.13.324.188.577-.142.713-.336.142-.725.088-1.078.183-.372.094-1.209.383-1.38.772-.117.27.43 1.255.531 1.532.224.607.448 1.214.666 1.821.448 1.214.902 2.422 1.356 3.637a738.733 738.733 0 0 0 2.759 7.249c1.85 4.827 3.73 9.642 5.593 14.468.035.1.454 1.055.418 1.084a119.297 119.297 0 0 1-3.153 2.264l-.002-.001ZM25.853 87.368l-.017-.047c2.186.142 4.343.088 6.518-.183 1.243 3.153 2.493 6.306 3.736 9.46.59 1.484 1.545 2.87 2.187 3.376-1.94.083-4.06.424-5.994.254-1.697-.153-2.069-1.739-2.605-3.1l-3.836-9.754.011-.006ZM51.379 99.35c-.649.035-1.215.065-1.85-.076a11.195 11.195 0 0 1-1.899-.572c-.86-.36-1.668-.896-2.233-1.639-.542-.707-.843-1.568-1.138-2.41-.153-.442-1.803-5.298-1.892-5.263a47.43 47.43 0 0 1-5.457 1.603c-.572-1.467-1.143-2.935-1.709-4.396 5.918-1.51 11.051-4.615 15.925-8.204.678 1.903 1.361 3.807 2.039 5.71-1.621.944-3.248 1.845-4.916 2.7-.318.166-.129.601 0 .831.236.4.454.802.643 1.232.43.978.784 1.986 1.184 2.976.69 1.691 1.586 3.412 3.024 4.585 1.356 1.102 3.064 1.662 4.538 2.576-1.833.07-3.655.264-5.488.312-.26.006-.518.024-.777.035h.006ZM56.035 90.551c-.3-.92-.49-1.874-.666-2.817-.495-2.6-.542-5.328-.024-7.928.725-3.654 2.782-7.095 6.466-8.34 6.654-2.251 12.606 6.707 14.634 11.806-1.922.052-3.825.165-5.723.483-1.155-2.605-3.318-6.63-6.807-5.61-4.19 1.225-2.858 7.03-1.81 9.989.732 2.063 1.615 4.049 3.69 5.05 1.497.72 3.295 1.02 4.933.767.848-.13 1.903-.365 2.275-1.25.513-1.243-.424-3.24-.72-4.42 2.164.266 4.303.667 6.448 1.044.79 1.933 2.334 4.403 1.344 6.548-.967 2.092-3.802 2.463-5.824 2.545-6.506.278-14.634.066-17.78-6.765-.166-.36-.307-.731-.431-1.103h-.006l.001.001ZM87.035 97.758c-.754-.277-1.22-1.585-1.597-2.221-.513-.872-1.066-1.721-1.58-2.593a79.333 79.333 0 0 1-3.235-6.154c-1.75-3.713-3.141-7.556-4.567-11.398-.212-.572-.425-1.155-.42-1.774.79.03 1.663.383 2.482.483.966.118 1.94.13 2.906.07.135-.006.277-.017.406.024 1.038.342 1.574 3.183 1.94 4.102a154.36 154.36 0 0 0 1.273 3.106c.188.442.336 1.085.624 1.462.4.53.33.472 1.085.319.542-.112 6.317-1.857 6.2-2.146-1.356-3.324-2.705-6.648-4.061-9.978 1.791-1.238 3.519-2.57 5.357-3.736 2.098 5.345 4.202 10.69 6.3 16.036 1.385 3.53 2.782 7.06 4.161 10.591.13.336.206.69.283 1.044.441 2.139-2.116 2.116-3.26 2.263-.518.065-1.084.13-1.544-.124-.748-.407-1.055-1.639-1.314-2.381a47.732 47.732 0 0 0-1.556-3.967c-.319-.725-1.049-3.242-1.821-3.542-.124-.047-.26-.017-.39.018-2.221.577-4.443 1.16-6.665 1.739a73.518 73.518 0 0 1 4.067 7.366c.118.254.383 1.067.17 1.25-.093.083-.229.1-.359.112-1.426.147-2.894.236-4.326.153a2.042 2.042 0 0 1-.583-.112l.024-.011ZM12.227 100.434c-6.13-2.894-8.805-9.695-6.282-15.989 1.137-2.41 2.77-4.243 5.033-5.652 1.697-.984 4.22-1.385 6.03-.495 1.956.966 3.188 3.224 3.954 5.169.819 2.086 1.29 4.426.347 6.56-.984 2.215-3.117 3.718-5.34 4.52a66.824 66.824 0 0 1-3.023.99c1.238 2.097 2.263 3.4 3.483 5.475-1.745-.042-2.587.076-4.208-.578h.006Zm-1.302-9.193c.82-.33 1.638-.654 2.458-.985 2.033-.79 2.375-2.564 1.768-4.479-.531-1.673-1.857-2.835-3.613-1.921-.743.371-1.473.76-2.193 1.173.33 2.127.854 4.178 1.585 6.206l-.006.006h.001ZM95.08 41.675l10.732-9.064a1.132 1.132 0 0 1 1.597.135 1.131 1.131 0 0 1-.135 1.597l-10.733 9.064M101.203 56.621l17.681-7.06a1.137 1.137 0 0 1 1.474.63 1.137 1.137 0 0 1-.631 1.474l-17.681 7.06M107.905 73.772l14.027-.826a1.135 1.135 0 0 0 1.066-1.202 1.135 1.135 0 0 0-1.202-1.066l-14.027.825"/>
    <style>
        path { fill: #000; }
        @media (prefers-color-scheme: dark) {
            path { fill: #FFF; }
        }
    </style>
</svg>
