<svg xmlns="http://www.w3.org/2000/svg" width="82" height="52" fill="none"><path fill="#EEFDDA" d="M13.468 40.025c-.805-2.05-1.614-4.097-2.419-6.148-.42-1.075-.392-1.708.503-2.472.931-.797 1.863-1.59 2.794-2.382 1.581-1.316 3.162-2.63 4.74-3.95-.099.08-.172.326-.233.444-.09.164-.176.332-.266.495l-.527.956-.257.465c-.082.143-.127.31-.229.438-.102.127-.315.229-.462.335a67.978 67.978 0 0 0-3.293 2.57c-.18.147-.36.302-.494.49-.14.192-.13.323.122.225.156-.062.29-.168.446-.233.253-.11.502-.221.751-.332.258-.114.515-.233.772-.355.127-.061.258-.119.385-.18.127-.062.384-.156.384-.184.057 1.116.617 2.166 1.021 3.199-1.054.404-2.12.76-3.207 1.062.31.805.625 1.61.936 2.414a28.267 28.267 0 0 0 4.081-1.062c.474 1.197.944 2.395 1.418 3.591-2.288.585-4.592.78-6.95.613h-.016v.001Z"/><path fill="#EEFDDA" d="M29.438 34.878a50.093 50.093 0 0 1-2.68 1.752c-1.41-1.622-2.815-3.248-4.212-4.874-.274.16-.413.233-.69.388.791 1.949 1.584 3.898 2.377 5.846-.817.38-1.647.72-2.496 1.018l-3.175-7.967c-.486-1.218-.654-2.125-.081-3.342.551-1.173 1.143-2.33 1.662-3.518 1.062-.895 2.125-1.785 3.187-2.684.412-.356 1.124-.965 1.606-.433.567.625.057 2.259-.033 2.925-.262 1.9.731 3.886-.156 5.79a784.826 784.826 0 0 0 4.695 5.098h-.005.001Zm-8.482-9.381c-.445 1.2-.767 2.091-.428 3.374.482-.286.96-.58 1.438-.874.825-.548.629-1.72.792-2.553.082-.421.303-1.549-.478-.874-.437.314-.878.625-1.32.931l-.004-.004ZM30.378 34.204a7808.19 7808.19 0 0 0-2.44-5.77c-.625-1.474-1.356-2.94-1.573-4.542-.114-.858.053-1.778.16-2.631.065-.527.142-1.058.236-1.581.078-.441.094-.98.356-1.357.163-.229.412-.388.629-.56 1.311-1.111 2.623-2.223 3.938-3.33.266.993.012 2.305-.02 3.33a148.28 148.28 0 0 0-3.19 2.358c-.103.837-.193 1.589-.078 2.43.935-.67 1.88-1.327 2.835-1.965.315 1.197.89 2.325 1.381 3.46a65.01 65.01 0 0 0-2.872 1.966l2.802 6.582c-.723.535-1.442 1.078-2.165 1.614v-.004ZM37.009 29.779c-1.214-2.782-2.423-5.565-3.636-8.347-.507-1.165-.838-2.239-.842-3.518 0-.625 0-1.25.004-1.875 0-.695.147-1.594-.082-2.26a735.644 735.644 0 0 1 4.736-3.955c.563 1.21.596 2.86.817 4.18a42.887 42.887 0 0 0-3.342 1.769c.061.846.114 1.659.298 2.488.993-.466 2.006-.85 3.048-1.18.43 1.384 1.062 2.7 1.63 4.028a15.902 15.902 0 0 0-3.199.772c.446 1.009.887 2.014 1.332 3.023 1.349-.372 2.676-.462 4.07-.404l1.94 4.588c-2.422-.54-4.51-.344-6.773.69h-.001Z"/><path fill="#EEFDDA" d="M40.294 19.025c-1.059-2.574-1.242-5.172-.912-7.93.18-1.491.458-3.812 1.692-4.85 3.407-2.872 5.887 5.835 6.533 7.665a26.318 26.318 0 0 1-1.966 1.981c-.273-.707-1.528-5.356-3.092-4.518-.785.42-.867 1.605-.887 2.377-.053 1.72.454 3.338 1.07 4.916.646 1.654 1.365 3.337 2.35 4.837.478.731 1.23 1.875 2.214 1.916 1.953.081.025-4.944-.18-5.569.907.066 1.802.066 2.71.008.502 1.39 4.08 11.88-.356 11.08-2.014-.363-3.657-2.533-4.801-4.064-1.793-2.403-3.236-5.087-4.372-7.85h-.004v.001ZM56.37 28.819c-2.635-6.868-5.397-13.695-7.73-20.673.094.286-1.54 1.152-1.801 1.266-.544-.695-.548-1.708-.78-2.525a27.878 27.878 0 0 0-.728-2.214c-.159-.42-.625-1.132-.18-1.524.29-.253.617-.462.912-.71.433-.368.866-.732 1.299-1.1C48.236.6 48.906-.234 50.14.061c.25.06.466.662.548.858l.6 1.491a855.23 855.23 0 0 1 1.223 3.032c.09.224.13.4-.099.494-.233.098-.502.061-.748.127-.257.065-.837.265-.955.535-.082.188.298.87.367 1.062.156.42.31.842.462 1.263.31.841.625 1.679.94 2.52.629 1.68 1.267 3.355 1.912 5.026 1.283 3.346 2.587 6.684 3.877 10.03.025.07.315.731.29.751a82.54 82.54 0 0 1-2.185 1.57l-.002-.001ZM14.456 42.542l-.012-.033c1.516.098 3.011.061 4.519-.127.862 2.186 1.728 4.372 2.59 6.558.409 1.03 1.07 1.99 1.516 2.34-1.345.058-2.815.295-4.155.176-1.177-.106-1.434-1.205-1.806-2.149l-2.66-6.761.008-.004ZM32.15 50.848c-.449.025-.841.045-1.282-.053-.45-.098-.89-.22-1.316-.396-.596-.25-1.156-.621-1.548-1.136-.376-.49-.584-1.087-.789-1.67-.106-.307-1.25-3.674-1.311-3.65a32.854 32.854 0 0 1-3.783 1.112c-.397-1.017-.793-2.035-1.185-3.048 4.102-1.046 7.66-3.199 11.04-5.687.47 1.32.943 2.64 1.413 3.959a72.858 72.858 0 0 1-3.408 1.871c-.22.115-.09.417 0 .576.164.278.315.556.446.854.298.678.543 1.377.82 2.063.48 1.173 1.1 2.366 2.097 3.179.94.764 2.124 1.152 3.145 1.785-1.27.05-2.533.184-3.803.217-.18.004-.36.016-.54.024h.005ZM35.379 44.748c-.209-.637-.34-1.299-.462-1.953-.343-1.802-.376-3.693-.016-5.495.502-2.533 1.928-4.919 4.482-5.781 4.612-1.561 8.739 4.649 10.144 8.183-1.332.037-2.651.115-3.967.335-.8-1.806-2.3-4.596-4.719-3.89-2.904.85-1.981 4.875-1.254 6.926.507 1.43 1.12 2.806 2.558 3.501 1.037.499 2.283.707 3.42.532.587-.09 1.319-.254 1.576-.867.356-.862-.294-2.247-.498-3.064 1.5.184 2.982.462 4.47.724.547 1.34 1.617 3.051.93 4.539-.67 1.45-2.635 1.707-4.036 1.764-4.51.193-10.145.046-12.327-4.69a7.589 7.589 0 0 1-.298-.764h-.004ZM56.87 49.745c-.524-.192-.846-1.1-1.108-1.54-.356-.605-.74-1.194-1.095-1.798a54.957 54.957 0 0 1-2.243-4.266c-1.213-2.574-2.178-5.237-3.166-7.901-.147-.397-.294-.801-.29-1.23.547.02 1.152.265 1.72.335.67.082 1.344.09 2.014.049.094-.005.192-.012.282.016.719.237 1.09 2.207 1.344 2.844.286.72.58 1.438.883 2.153.13.306.232.752.433 1.013.277.368.228.327.751.221.376-.077 4.38-1.287 4.298-1.487-.94-2.305-1.875-4.609-2.815-6.917 1.242-.858 2.44-1.781 3.714-2.59 1.454 3.705 2.913 7.411 4.367 11.117.96 2.447 1.928 4.894 2.885 7.341.09.234.143.479.196.724.306 1.483-1.467 1.467-2.26 1.569-.36.045-.751.09-1.07-.086-.52-.282-.732-1.136-.911-1.65a33.092 33.092 0 0 0-1.079-2.75c-.22-.503-.727-2.248-1.263-2.456-.086-.033-.18-.012-.27.012-1.54.4-3.08.805-4.62 1.206a50.955 50.955 0 0 1 2.82 5.107c.081.175.265.739.118.866-.066.057-.16.07-.25.077-.989.102-2.006.164-2.998.106a1.41 1.41 0 0 1-.405-.077l.017-.008ZM5.01 51.6C.761 49.594-1.094 44.879.655 40.516c.789-1.671 1.92-2.942 3.489-3.918 1.177-.683 2.925-.96 4.18-.344 1.356.67 2.21 2.235 2.74 3.583.569 1.447.896 3.069.242 4.548-.683 1.536-2.161 2.578-3.702 3.133-.694.246-1.389.474-2.095.687.858 1.454 1.568 2.357 2.414 3.795-1.21-.029-1.793.053-2.917-.4h.004Zm-.903-6.373c.568-.23 1.136-.454 1.704-.683 1.41-.548 1.646-1.777 1.226-3.105-.368-1.16-1.287-1.965-2.505-1.332a30.17 30.17 0 0 0-1.52.813 22.986 22.986 0 0 0 1.1 4.302l-.005.005Z"/><path fill="#D6F78F" d="m62.446 10.866 7.44-6.283a.785.785 0 1 1 1.013 1.2l-7.44 6.284M66.69 21.227l12.258-4.894a.788.788 0 0 1 1.02.437.787.787 0 0 1-.437 1.021l-12.257 4.895M71.336 33.117l9.724-.572a.787.787 0 1 0-.094-1.573l-9.724.572"/></svg>
